<?xml version="1.0" encoding="UTF-8"?>
<svg id="Layer_2" data-name="Layer 2" xmlns="http://www.w3.org/2000/svg" viewBox="0 0 847.01 190">
  <defs>
    <style>
      .cls-1 {
        fill: #fff;
      }
    </style>
  </defs>
  <g id="Layer_1-2" data-name="Layer 1">
    <g id="sword">
      <polygon id="blade" class="cls-1" points="607 91 606.86 75 571 75 571.08 74.92 561 65 550 75 37 75 0 95 37 115 550 115 561 125 571.08 115.08 571 115 607 115 607 99 328 95 607 91"/>
      <path class="cls-1" d="M827,75c-17,0-19,12-19,12h-174c-1.18-28.6-8.32-57.61-21.25-87h-20.75c16.72,31.44,23.56,63.11,20.5,95,3.06,31.89-3.78,63.56-20.5,95h20.75c12.93-29.39,20.07-58.4,21.25-87h174s2,12,19,12c21,0,20-20,20-20,0,0,1-20-20-20ZM827,102c-7,0-7-7-7-7,0,0,0-7,7-7s7,7,7,7c0,0,0,7-7,7Z"/>
    </g>
  </g>
</svg>