<?xml version="1.0" encoding="UTF-8"?>
<svg id="Layer_2" data-name="Layer 2" xmlns="http://www.w3.org/2000/svg" viewBox="0 0 27.35 32.04">
  <defs>
    <style>
      .cls-1 {
        fill: #866d4b;
      }

      .cls-2 {
        fill: none;
        stroke: #fffef6;
        stroke-miterlimit: 10;
        stroke-width: .3px;
      }
    </style>
  </defs>
  <g id="Layer_1-2" data-name="Layer 1">
    <polygon class="cls-2" points="11.26 29.43 2.76 29.43 .15 26.84 .15 5.2 2.76 2.61 11.26 2.61 13.67 .21 16.09 2.61 24.59 2.61 27.2 5.2 27.2 26.84 24.59 29.43 16.09 29.43 13.67 31.83 11.26 29.43"/>
    <polygon class="cls-1" points="26.05 5.66 24.12 3.74 15.61 3.74 13.68 1.82 11.74 3.74 3.23 3.74 3.23 3.74 1.3 5.66 1.3 26.38 3.23 28.3 3.23 28.3 11.74 28.3 13.67 30.22 15.61 28.3 24.12 28.3 24.12 28.3 26.05 26.38 26.05 5.66"/>
  </g>
</svg>